<svg version="1.2" xmlns="http://www.w3.org/2000/svg" viewBox="0 0 1596 519" width="1596" height="519">
	<title>DHL_Group_06</title>
	<style>
		.s0 { fill: #ffcc00 } 
		.s1 { fill: #d40511 } 
	</style>
	<path id="rect2" class="s0" d="m0 0h1596v518.6h-1596z"/>
	<path id="polygon4" class="s1" d="m204 259.5h-204v-16.1h215.8z"/>
	<path id="polygon6" class="s1" d="m226 229.7h-226v-16h237.8z"/>
	<path id="polygon8" class="s1" d="m182.2 289.1h-182.2v-15.9h193.9z"/>
	<path id="polygon12" class="s1" d="m1392.8 243.4h203.2v16.1h-215z"/>
	<path id="polygon14" class="s1" d="m1370.9 273.2h225.1v15.9h-236.9z"/>
	<path id="polygon16" class="s1" d="m1596 229.7h-193.1l11.8-16h181.3z"/>
	<path id="path22" class="s1" d="m209 289.1l102.5-139.1h127.1c14 0 13.8 5.3 7 14.6-7 9.5-18.9 25.7-26 35.3-3.6 4.9-10.1 13.8 11.5 13.8h170.3c-14.2 19.3-60.1 75.4-142.6 75.4z"/>
	<path id="path24" class="s1" d="m795.6 213.6l-55.5 75.5h-146.5c0 0 55.5-75.4 55.5-75.4z"/>
	<path id="path26" class="s1" d="m1007.5 213.7l-55.6 75.4h-146.5c0 0 55.6-75.4 55.6-75.4z"/>
	<path id="path28" class="s1" d="m1055.1 213.7c0 0-10.7 14.6-15.9 21.6-18.4 24.9-2.1 53.8 57.9 53.8h235.2l55.6-75.4c0 0-332.8 0-332.8 0z"/>
	<path id="path32" class="s1" d="m280.7 63.5l-51 69.3h277.9c14 0 13.8 5.3 7 14.6-7 9.4-18.7 25.9-25.8 35.4-3.6 4.9-10.1 13.8 11.5 13.8h113.7c0 0 18.3-25 33.6-45.8 20.9-28.3 1.8-87.3-72.8-87.3z"/>
	<path id="polygon34" class="s1" d="m850 139.8h65.4l56.2-76.3h146.4l-98 133.1h-358.3l98-133.1h146.5z"/>
	<path id="path36" class="s1" d="m1320.8 63.5l-97.9 133.1h-155.2c0 0 98-133.1 98-133.1z"/>
	<path id="path42" class="s1" d="m1049.1 457.5q-21.9 0-34.1-13.5-12.2-13.4-12.2-37.3v-9.3q0-15.8 6-27.1 5.9-11.3 16.6-17.3 10.8-6 25.2-6 11.5 0 20.6 3.9 9.2 3.9 15.9 11.4l-14.1 14.9q-5.3-5.3-10.7-7.3-5.5-2.1-11.4-2.1-11.5 0-17.7 7.7-6.2 7.8-6.2 22.9v7.3q0 15.1 5.7 23 5.7 7.9 16.6 7.9 9.9 0 15.3-6.5 5.4-6.6 5.4-17h-21.2v-19.5h44.7v18.5q0 14.3-5.4 24.5-5.5 10.1-15.4 15.5-10 5.4-23.6 5.4z"/>
	<path id="path44" class="s1" d="m1111.3 455.1v-81.7h21.9v20.3q1.8-5.4 4.7-10.3 3-4.9 7.7-8 4.8-3.1 11.8-3.1 1.5 0 2.7 0 1.2 0.1 2.9 0.4v21.5q-1.3-0.2-2.8-0.2-1.5-0.1-2.9-0.1-8.9 0-14.5 3.3-5.6 3.4-8.3 7.2v50.7c0 0-23.2 0-23.2 0z"/>
	<path id="path46" fill-rule="evenodd" class="s1" d="m1210.4 457q-18.2 0-28.7-10.6-10.5-10.6-10.5-29v-6.4q0-18.4 10.5-29 10.5-10.5 28.7-10.5 18.3 0 28.8 10.5 10.5 10.6 10.5 29v6.4q0 18.4-10.5 29-10.5 10.6-28.8 10.6zm0-19.4q7.6 0 11.8-5.1 4.3-5.1 4.3-15.6v-5.4q0-10.4-4.3-15.5-4.2-5.2-11.8-5.2-7.5 0-11.7 5.2-4.3 5.1-4.3 15.5v5.4q0 10.5 4.3 15.6 4.2 5.1 11.7 5.1z"/>
	<path id="path48" class="s1" d="m1290.7 456.7q-12 0-18.4-8.5-6.4-8.5-6.4-24.1v-50.7h23.2v49.3q0 6.6 2.8 10.4 2.8 3.9 8.9 3.9 4.5 0 7.8-2.2 3.4-2.2 5.5-5.5v-55.9h23.2v81.7h-21.9v-14.3q-3.7 7-9.9 11.5-6.2 4.4-14.8 4.4z"/>
	<path id="path50" fill-rule="evenodd" class="s1" d="m1358.4 485.5v-112.1h22v14.1q3.3-7.4 9.7-11.6 6.3-4.1 14.5-4.1 13.7 0 21.5 10.5 7.8 10.5 7.8 28.7v6.4q0 18.3-7.8 28.8-7.8 10.5-21.5 10.5-15.9 0-22.9-14.8v43.6c0 0-23.3 0-23.3 0zm37.4-94.2q-8.9 0-14.1 7.5v31q5.2 7.3 14.1 7.3 7.2 0 11-5.2 3.9-5.2 3.9-15v-5.4q0-9.8-3.9-15-3.8-5.2-11-5.2z"/>
</svg>