<svg version="1.2" xmlns="http://www.w3.org/2000/svg" viewBox="0 0 1550 333" width="1550" height="333"><style></style><path fill-rule="evenodd" d="m904.8 251l-57.9-241h-177.2l-0.9 0.6c11.4 6.2 21.7 14.7 17.9 28-2.4 9.1-19.4 27.6-25.6 36.7l-193.4 242.1h121.1v-0.9c-10.3-7.6-20.9-13.2-17-26.1 1.4-3.8 3.8-8.5 6.7-13.2 1.8-2.4 13.3-17.7 29.4-38.5h101.1c28.6 0 38.5-37.1 39.1-40.9l26.2 119.6h169.6l0.9-0.9c-31.5-25.2-32.4-36.1-40-65.5zm-264.5-53.8c39.9-51.7 84-108.7 84-108.7h0.9l22.9 108.7zm-313.6-36.4v1.8c25.3 12.9 22.3 24.6 15.3 47l-25.6 71.4c-10.6 1.7-22.9 1.7-33.8 1.7-121.1 0-133.4-69.3-112.6-128.7 20-58.4 82.6-103.1 191.4-103.1 42.3 0 119.9 10 143.1 26.1h4.1l23-67.8c-39.1-6.8-111.7-9.1-154.9-9.1-173.5 0-333.7 63.7-369.2 167.8-37.9 107.8 83.2 164.8 257.5 164.8 59.9 0 121.7-5.3 182.8-14.7l54.7-157.2zm1138.4 90.2l84.1-241.8-183.4 0.8h-374.8l-14.7-1.4-56.2 71.4 6.2-2.4c35.6-12 60-16.7 97.3-16.7 14.4 0 26.8 0 40 1.5l-88.8 255h185.2l0.6-0.9c-28.5-19.4-21.5-39.9-12.4-67l65-187.1c14.4-2.4 26.7-2.4 41.4-2.4 29.4 0 52.7 4.7 59.4 20 0 0 0 0 51.2-69.1 34.4 14.4 19.7 41.5 11.1 65.3l-83.7 241.2h183.4l0.6-0.9c-34.4-14.6-20-40.8-11.5-65.5z"/></svg>