<?xml version="1.0" encoding="UTF-8"?>
<svg version="1.1" xmlns="http://www.w3.org/2000/svg" width="565" height="176">
<path d="M0 0 C186.45 0 372.9 0 565 0 C565 58.08 565 116.16 565 176 C378.55 176 192.1 176 0 176 C0 117.92 0 59.84 0 0 Z " fill="#FBFCFC" transform="translate(0,0)"/>
<path d="M0 0 C72.15278348 -0.0806627 72.15278348 -0.0806627 102.22851562 -0.09765625 C109.11303721 -0.10157219 115.9975587 -0.10561321 122.88208008 -0.10986328 C123.74498211 -0.11039078 124.60788414 -0.11091828 125.49693471 -0.11146176 C139.44079825 -0.12016821 153.38464534 -0.13594016 167.32849912 -0.15430559 C181.63107953 -0.17298685 195.93365131 -0.18411296 210.23624343 -0.18817699 C219.06676172 -0.19092574 227.89723357 -0.1996177 236.72773757 -0.21583293 C242.77729549 -0.22637794 248.82682929 -0.22960628 254.87639574 -0.22700275 C258.37038403 -0.22571758 261.86429098 -0.22773318 265.35826492 -0.23841095 C269.14079017 -0.24829401 272.92311322 -0.24599319 276.7056427 -0.24050903 C277.81749729 -0.24633472 278.92935187 -0.2521604 280.07489902 -0.25816262 C281.58868562 -0.25218947 281.58868562 -0.25218947 283.13305378 -0.24609566 C284.00679026 -0.2468551 284.88052674 -0.24761454 285.78074008 -0.24839699 C288 -0 288 -0 291 2 C290.96555362 5.1057353 290.57585054 7.29398624 288.58494186 9.73491287 C286.59118239 11.67628051 284.54047037 13.52806953 282.45068359 15.36572266 C280.88369992 16.79077682 279.31870486 18.21802026 277.7555542 19.64727783 C276.95852837 20.37141121 276.16150253 21.09554459 275.3403244 21.8416214 C271.79068267 25.11530036 268.37331199 28.51307824 264.96728516 31.93505859 C264.30640081 32.59716654 263.64551647 33.25927448 262.96460533 33.9414463 C261.60410322 35.3061742 260.2446318 36.67193031 258.88615799 38.03867722 C256.71897191 40.21895139 254.5483918 42.39580013 252.37704468 44.57192993 C247.79013891 49.17007701 243.20728848 53.77225219 238.625 58.375 C233.2588087 63.76487202 227.89092534 69.15303823 222.51887131 74.53706741 C220.38353488 76.67886832 218.25123333 78.82365914 216.11904907 80.96859741 C214.81990982 82.27136613 213.52063168 83.57399637 212.22119141 84.87646484 C211.63218552 85.47063705 211.04317963 86.06480927 210.43632507 86.67698669 C208.05095637 89.06266491 205.81675984 91.1221601 203 93 C203.61111228 96.18900747 204.66017786 98.21671584 206.59765625 100.80859375 C207.14357422 101.54464844 207.68949219 102.28070313 208.25195312 103.0390625 C208.84943359 103.83054687 209.44691406 104.62203125 210.0625 105.4375 C210.99545898 106.68853516 210.99545898 106.68853516 211.94726562 107.96484375 C217.25403525 115.06165806 222.63530014 122.10238527 228.02001953 129.14013672 C233.14785449 135.85092824 238.19427751 142.61755997 243.17236328 149.44018555 C245.68733812 152.88425704 248.21439795 156.30417959 250.87109375 159.640625 C251.29914307 160.18452881 251.72719238 160.72843262 252.16821289 161.28881836 C253.27561186 162.68701317 254.39878024 164.07268041 255.5234375 165.45703125 C257.29980743 168.51633501 257.29473992 170.51901986 257 174 C252.06314112 176.46842944 244.53945459 175.39737651 239.05322266 175.45996094 C237.27820753 175.48649717 235.50334449 175.52734479 233.72900391 175.58300781 C217.09576825 176.09843009 217.09576825 176.09843009 212.27734375 172.09375 C210.58691406 170.16210937 210.58691406 170.16210937 209 168 C208.37061523 167.24009766 207.74123047 166.48019531 207.09277344 165.69726562 C205.0494632 163.18103198 203.11295986 160.60731428 201.1875 158 C200.50042969 157.08387939 199.81335938 156.16775879 199.10546875 155.22387695 C197.05988445 152.49015008 195.0276296 149.74706225 193 147 C192.40525879 146.1961084 191.81051758 145.3922168 191.19775391 144.56396484 C188.11292281 140.38952509 185.05090096 136.19927988 182 132 C181.97812622 133.64198364 181.97812622 133.64198364 181.95581055 135.31713867 C181.89771261 139.38956905 181.82048073 143.46145315 181.73754883 147.53344727 C181.70435346 149.29377355 181.67630476 151.05420488 181.65356445 152.81469727 C181.6199188 155.34957525 181.5675994 157.88349523 181.51171875 160.41796875 C181.50532883 161.20149216 181.4989389 161.98501556 181.49235535 162.7922821 C181.37073176 167.34154881 180.8402732 170.38752072 178 174 C173.55245472 176.22377264 167.5712391 175.31953162 162.6875 175.375 C160.8322168 175.43107422 160.8322168 175.43107422 158.93945312 175.48828125 C149.9794745 175.57541232 149.9794745 175.57541232 145.6953125 173.05859375 C143.38133438 168.88383599 143.2209397 165.39506684 143.1875 160.6875 C143.16236328 159.85154297 143.13722656 159.01558594 143.11132812 158.15429688 C143.0527301 156.10336591 143.02343507 154.05163407 143 152 C142.44054687 152.556875 141.88109375 153.11375 141.3046875 153.6875 C120.76084929 173.24047784 96.24766273 176.34754721 69.04296875 176.1953125 C67.26908494 176.19236475 65.49519938 176.19032883 63.72131348 176.18920898 C57.21001545 176.17880643 50.69875489 176.15088422 44.1875 176.125 C29.605625 176.08375 15.02375 176.0425 0 176 C0 117.92 0 59.84 0 0 Z " fill="#F4BE04" transform="translate(0,0)"/>
<path d="M0 0 C0.103125 -0.763125 0.20625 -1.52625 0.3125 -2.3125 C1.08225072 -5.32152555 1.5377645 -6.17479827 4 -8 C8.42776548 -8.65299874 12.90458797 -8.46305849 17.375 -8.4375 C19.22351563 -8.4674707 19.22351563 -8.4674707 21.109375 -8.49804688 C22.89214844 -8.49708008 22.89214844 -8.49708008 24.7109375 -8.49609375 C25.79681152 -8.49794678 26.88268555 -8.4997998 28.00146484 -8.50170898 C31.6806671 -7.88611212 33.3424196 -6.56516622 36 -4 C37.26284749 -1.47430501 37.13435424 0.27615315 37.14717102 3.10420227 C37.15790398 4.72562637 37.15790398 4.72562637 37.16885376 6.37980652 C37.17154266 7.57100601 37.17423157 8.76220551 37.17700195 9.98950195 C37.18357315 11.23997314 37.19014435 12.49044434 37.19691467 13.77880859 C37.21327109 17.21487913 37.22487724 20.65088804 37.2331202 24.08698297 C37.23826979 26.23350469 37.24434554 28.38002209 37.25063133 30.52654076 C37.26968439 37.24185338 37.2839152 43.957155 37.2922433 50.67248946 C37.30201679 58.42542766 37.32833843 66.17808043 37.36874419 73.93091804 C37.39889963 79.92249683 37.41371162 85.91399377 37.41702431 91.90564698 C37.4193755 95.4846288 37.42834421 99.06330574 37.45348549 102.64220619 C37.48108617 106.63575852 37.47693692 110.62867284 37.4699707 114.62231445 C37.48918579 116.40000465 37.48918579 116.40000465 37.50878906 118.21360779 C37.45770441 126.22823053 37.45770441 126.22823053 35.09562683 130.21110535 C30.21898013 134.37396826 24.32768637 133.30249109 18.1875 133.375 C16.99833984 133.41238281 15.80917969 133.44976562 14.58398438 133.48828125 C4.7887138 133.58727893 4.7887138 133.58727893 1.73828125 130.6015625 C0 128 0 128 -1 126 C-5.44827896 126.93814414 -9.40965763 128.89173634 -13.5390625 130.74609375 C-30.49694307 136.88997599 -51.56342896 136.37777904 -68 129 C-86.39047372 120.09211429 -100.81518855 105.3117302 -107.73632812 85.93896484 C-111.95559709 72.50342704 -112.91521965 57.62496438 -109 44 C-108.74347656 43.06027344 -108.48695313 42.12054688 -108.22265625 41.15234375 C-102.48339098 22.06251293 -89.30175668 7.23068677 -72.08203125 -2.4296875 C-67.50862349 -4.75986484 -62.91674978 -6.53965193 -58 -8 C-57.26007813 -8.22558594 -56.52015625 -8.45117188 -55.7578125 -8.68359375 C-36.49493094 -13.51597753 -17.15187341 -9.05237763 0 0 Z " fill="#0263A9" transform="translate(349,42)"/>
<path d="M0 0 C0.65421936 -0.00073013 1.30843872 -0.00146027 1.98248291 -0.00221252 C4.13135542 0.00125358 6.27802299 0.04006031 8.42651367 0.0793457 C9.921512 0.08867751 11.41652568 0.09579189 12.9115448 0.1007843 C16.83611671 0.11982577 20.7597554 0.16890014 24.68395996 0.2243042 C28.69241716 0.27555935 32.70102597 0.2983116 36.7097168 0.32348633 C44.56756574 0.37702327 52.42465782 0.46229961 60.28198242 0.56762695 C60.35200022 22.94180692 60.4049351 45.31596887 60.43741894 67.69023609 C60.45290127 78.07852143 60.47401684 88.46673877 60.50830078 98.85498047 C60.53816137 107.90721849 60.55754748 116.95940728 60.56424791 126.01169318 C60.56816584 130.80677011 60.57740178 135.60170618 60.59917259 140.39673805 C60.61948503 144.90696322 60.62582689 149.41698906 60.62130547 153.92725563 C60.62213302 155.58532798 60.62812986 157.24340677 60.63959885 158.90143967 C60.65446131 161.16023329 60.65095943 163.41826813 60.64274597 165.67707825 C60.64551135 166.94270001 60.64827673 168.20832178 60.65112591 169.51229572 C60.28198242 172.56762695 60.28198242 172.56762695 58.89297962 174.46898937 C55.19245281 176.99260507 50.51813064 176.09285043 46.28198242 175.56762695 C28.94867603 171.77172479 12.67372118 162.5245934 2.33276367 147.7902832 C0.59562555 145.07714294 -1.08016132 142.34161641 -2.71801758 139.56762695 C-3.22461914 138.79418945 -3.7312207 138.02075195 -4.25317383 137.22387695 C-6.1018525 133.8716063 -7.23230877 130.39921173 -8.34301758 126.75512695 C-8.55958008 126.0815918 -8.77614258 125.40805664 -8.99926758 124.71411133 C-9.2080957 124.04057617 -9.41692383 123.36704102 -9.63208008 122.6730957 C-9.81722168 122.07650146 -10.00236328 121.47990723 -10.19311523 120.86523438 C-11.76362489 113.99078492 -11.87927011 107.11571868 -11.91088867 100.10009766 C-11.91906616 99.082836 -11.92724365 98.06557434 -11.93566895 97.01748657 C-11.96033536 93.67613292 -11.97698205 90.33482089 -11.99145508 86.9934082 C-11.99677876 85.84856649 -12.00210243 84.70372478 -12.00758743 83.5241909 C-12.03422511 77.475444 -12.05363802 71.42671716 -12.06811523 65.37792969 C-12.08150039 60.37383941 -12.1094508 55.37015247 -12.15014648 50.36621094 C-12.19935604 44.31395369 -12.22422003 38.26206447 -12.23134232 32.20961571 C-12.2380647 29.90547851 -12.2533122 27.60134987 -12.27723312 25.29732704 C-12.30875605 22.08010174 -12.30894157 18.86431102 -12.30151367 15.64697266 C-12.31791901 14.69568985 -12.33432434 13.74440704 -12.35122681 12.76429749 C-12.34290833 11.88549927 -12.33458984 11.00670105 -12.32601929 10.10127258 C-12.33098451 8.96231269 -12.33098451 8.96231269 -12.33605003 7.80034351 C-10.57842188 1.45070048 -6.01906233 -0.05667667 0 0 Z " fill="#0263A9" transform="translate(504.718017578125,-0.567626953125)"/>
<path d="M0 0 C49.17 0 98.34 0 149 0 C147.68 1.65 146.36 3.3 145 5 C144.43483388 7.05552468 144.43483388 7.05552468 144.5415802 9.14727783 C144.54022064 10.33709511 144.54022064 10.33709511 144.53883362 11.5509491 C144.55800339 12.40715347 144.57717316 13.26335785 144.59692383 14.14550781 C144.60104279 15.05837051 144.60516174 15.97123322 144.60940552 16.91175842 C144.62015014 18.89029469 144.63967206 20.86879849 144.66697121 22.8471756 C144.70742956 25.98400687 144.71879022 29.11969711 144.72160339 32.2567749 C144.73335898 41.1740625 144.78576981 50.09059225 144.88647461 59.00732422 C144.94607781 64.46638639 144.96169733 69.92415304 144.9503231 75.38350677 C144.9547668 77.45832444 144.97594545 79.53317905 145.01450539 81.60764313 C145.31031833 97.82411028 145.31031833 97.82411028 142.06600952 103.21154785 C139.82533717 105.48661718 137.65057877 107.23450164 135 109 C133.71645821 110.08936764 132.4432512 111.19121042 131.1875 112.3125 C130.54039062 112.86421875 129.89328125 113.4159375 129.2265625 113.984375 C126.92987291 116.06348347 124.78018264 118.24028129 122.62255859 120.46142578 C111.98336873 131.38033143 99.2266748 139.94854541 83.4140625 140.24023438 C76.30961957 140.27324759 70.6391156 139.84533526 64 137 C65.27467043 134.20807634 66.59153969 132.15918369 68.76220703 129.99487305 C69.31683624 129.43716721 69.87146545 128.87946136 70.44290161 128.30485535 C71.0418222 127.71312027 71.6407428 127.12138519 72.2578125 126.51171875 C73.19063553 125.57958305 73.19063553 125.57958305 74.14230347 124.62861633 C75.45969214 123.31424584 76.77950751 122.00230375 78.1015625 120.69262695 C80.10206146 118.71023096 82.09459513 116.72010482 84.0859375 114.72851562 C89.5573415 109.27254341 95.01237596 103.86599309 100.8984375 98.85473633 C105.64871827 94.66237074 110.14723106 90.19588374 114.65698242 85.74804688 C115.85039218 84.57640093 117.05003457 83.4110719 118.25561523 82.25195312 C120.0171758 80.55734758 121.75818302 78.84381177 123.49609375 77.125 C124.03455429 76.61437012 124.57301483 76.10374023 125.12779236 75.57763672 C128.77334295 71.91163782 129.89046036 69.154088 130 64 C128.78975519 61.46948812 127.82242014 60.04961841 126 58 C125.40058594 57.3090625 124.80117187 56.618125 124.18359375 55.90625 C110.69333987 41.397395 92.16906965 34.23782351 72.734375 32.75 C52.8944607 32.33450441 34.80472627 39.6339638 20.3125 53.125 C10.04258471 63.95509249 4.27181079 76.54950233 1 91 C0.67 91 0.34 91 0 91 C0 60.97 0 30.94 0 0 Z " fill="#FDFDFC" transform="translate(0,0)"/>
<path d="M0 0 C2.37922175 2.33237697 2.96698176 3.73898974 3.38818359 7.06860352 C3.39325928 8.83095337 3.39325928 8.83095337 3.3984375 10.62890625 C3.40230469 11.91087891 3.40617187 13.19285156 3.41015625 14.51367188 C3.40387207 15.17810303 3.39758789 15.84253418 3.39111328 16.52709961 C3.37502167 18.55976223 3.39099235 20.59044501 3.41015625 22.62304688 C3.40628906 23.90373047 3.40242188 25.18441406 3.3984375 26.50390625 C3.39505371 27.67767822 3.39166992 28.8514502 3.38818359 30.06079102 C3 33 3 33 1.61962891 34.8828125 C-0.61865754 36.42673755 -2.29710415 36.37071333 -5 36.4375 C-15.22304934 37.1532485 -22.97824459 40.51439286 -30 48 C-30.49371094 48.50015625 -30.98742187 49.0003125 -31.49609375 49.515625 C-38.94010732 58.26289318 -38.42363092 72.26995523 -38.34955978 83.10591316 C-38.33554703 85.34762169 -38.34241166 87.58847224 -38.35440063 89.83018494 C-38.38501343 96.19080968 -38.38036368 102.55121272 -38.36035156 108.91186523 C-38.34943183 112.83155963 -38.36260632 116.7505923 -38.39024734 120.67019463 C-38.39567163 122.15370716 -38.3916655 123.63728659 -38.37784958 125.12074471 C-38.35878011 127.18808844 -38.37020104 129.25325012 -38.38818359 131.32055664 C-38.38460342 133.07922813 -38.38460342 133.07922813 -38.38095093 134.87342834 C-39.18712418 138.94509013 -40.80433706 140.43716623 -44 143 C-46.96679688 143.64697266 -46.96679688 143.64697266 -50.21875 143.6640625 C-51.39824219 143.67050781 -52.57773437 143.67695313 -53.79296875 143.68359375 C-55.01628906 143.66425781 -56.23960937 143.64492187 -57.5 143.625 C-58.72332031 143.64433594 -59.94664062 143.66367188 -61.20703125 143.68359375 C-71.1643092 143.6291824 -71.1643092 143.6291824 -74.28125 140.5234375 C-75.13203125 139.27433594 -75.13203125 139.27433594 -76 138 C-76.33 137.67 -76.66 137.34 -77 137 C-77.10700615 135.34358695 -77.14408756 133.68261818 -77.15390015 132.02278137 C-77.16250061 130.94465179 -77.17110107 129.86652222 -77.17996216 128.75572205 C-77.18422211 127.56249832 -77.18848206 126.3692746 -77.19287109 125.13989258 C-77.20104858 123.89117371 -77.20922607 122.64245483 -77.21765137 121.355896 C-77.24256883 117.20211106 -77.25918679 113.04836266 -77.2734375 108.89453125 C-77.27879624 107.46544577 -77.28417375 106.03636035 -77.28956985 104.60727501 C-77.31120795 98.6615947 -77.32994356 92.71591715 -77.34119225 86.77020741 C-77.35742211 78.24702183 -77.39056511 69.72429288 -77.44759309 61.20127946 C-77.48631029 55.21055686 -77.50582723 49.21995627 -77.51111281 43.22911185 C-77.51476503 39.65056361 -77.52677041 36.07250193 -77.55921555 32.49408913 C-77.5949247 28.49814419 -77.59092093 24.5031777 -77.58349609 20.50708008 C-77.59990143 19.32397751 -77.61630676 18.14087494 -77.63320923 16.92192078 C-77.56507682 7.97603641 -77.56507682 7.97603641 -74.6489563 4.26385498 C-71.44521828 1.52587162 -69.95277448 1.26067759 -65.78125 1.30859375 C-64.60175781 1.31439453 -63.42226563 1.32019531 -62.20703125 1.32617188 C-60.98371094 1.36291016 -59.76039063 1.39964844 -58.5 1.4375 C-57.27667969 1.43943359 -56.05335938 1.44136719 -54.79296875 1.44335938 C-44.41242329 1.59651496 -44.41242329 1.59651496 -40 5 C-39.1875 8.1875 -39.1875 8.1875 -39 11 C-37.44152344 10.18595703 -37.44152344 10.18595703 -35.8515625 9.35546875 C-13.17864045 -2.34738757 -13.17864045 -2.34738757 0 0 Z " fill="#0364AA" transform="translate(477,32)"/>
<path d="M0 0 C3.18760186 1.50028046 4.83665192 2.72608595 6.890625 5.61328125 C7.426875 6.35578125 7.963125 7.09828125 8.515625 7.86328125 C9.08796875 8.67152344 9.6603125 9.47976562 10.25 10.3125 C11.50353328 12.04938722 12.7588066 13.78501968 14.015625 15.51953125 C14.66853516 16.42268066 15.32144531 17.32583008 15.99414062 18.25634766 C19.26027811 22.72383221 22.63068818 27.11011843 26 31.5 C31.80772711 39.08646194 37.54077182 46.72190955 43.17236328 54.44018555 C45.68733812 57.88425704 48.21439795 61.30417959 50.87109375 64.640625 C51.29914307 65.18452881 51.72719238 65.72843262 52.16821289 66.28881836 C53.27561186 67.68701317 54.39878024 69.07268041 55.5234375 70.45703125 C57.29980743 73.51633501 57.29473992 75.51901986 57 79 C52.06314112 81.46842944 44.53945459 80.39737651 39.05322266 80.45996094 C37.27820753 80.48649717 35.50334449 80.52734479 33.72900391 80.58300781 C17.09576825 81.09843009 17.09576825 81.09843009 12.27734375 77.09375 C10.58691406 75.16210938 10.58691406 75.16210938 9 73 C8.37061523 72.24009766 7.74123047 71.48019531 7.09277344 70.69726562 C5.0494632 68.18103198 3.11295986 65.60731428 1.1875 63 C0.50042969 62.08387939 -0.18664062 61.16775879 -0.89453125 60.22387695 C-2.94011555 57.49015008 -4.9723704 54.74706225 -7 52 C-7.59474121 51.1961084 -8.18948242 50.3922168 -8.80224609 49.56396484 C-11.88707719 45.38952509 -14.94909904 41.19927988 -18 37 C-18.01458252 38.09465576 -18.02916504 39.18931152 -18.04418945 40.31713867 C-18.10228739 44.38956905 -18.17951927 48.46145315 -18.26245117 52.53344727 C-18.29564654 54.29377355 -18.32369524 56.05420488 -18.34643555 57.81469727 C-18.3800812 60.34957525 -18.4324006 62.88349523 -18.48828125 65.41796875 C-18.49786613 66.59325386 -18.49786613 66.59325386 -18.50764465 67.7922821 C-18.62926824 72.34154881 -19.1597268 75.38752072 -22 79 C-26.44754528 81.22377264 -32.4287609 80.31953162 -37.3125 80.375 C-39.1677832 80.43107422 -39.1677832 80.43107422 -41.06054688 80.48828125 C-50.00907345 80.57530096 -50.00907345 80.57530096 -54.296875 78.0859375 C-56.68961728 73.75046411 -56.91941215 70.14095588 -56.9375 65.25 C-56.99873047 64.3940625 -57.05996094 63.538125 -57.12304688 62.65625 C-57.16884803 58.62574807 -56.8832184 55.9608536 -54.08805847 52.91999817 C-53.27291275 52.24232895 -52.45776703 51.56465973 -51.61791992 50.86645508 C-45.79196522 45.85497785 -40.37731648 40.50486903 -34.9609375 35.05859375 C-33.9441197 34.0399047 -32.92707633 33.02144078 -31.90982056 32.00318909 C-29.2674752 29.35707413 -26.62814982 26.70796784 -23.98950195 24.0581665 C-21.28262536 21.34095442 -18.57282056 18.6266658 -15.86328125 15.91210938 C-10.57269584 10.61088503 -5.28530627 5.30648822 0 0 Z " fill="#0263A9" transform="translate(200,95)"/>
<path d="M0 0 C5.0972673 4.37124704 9.15457695 8.91620151 12.1328125 14.9453125 C12.44992187 15.54601562 12.76703125 16.14671875 13.09375 16.765625 C16.74832484 24.77886708 16.0152538 33.93309708 13.5703125 42.1953125 C9.52329061 52.89806377 2.11692721 60.19357967 -8.203125 65.04296875 C-16.72820407 68.08763985 -27.51445484 68.79168727 -35.9296875 65.1953125 C-37.26178987 64.48070805 -38.5772367 63.73346426 -39.8671875 62.9453125 C-40.8984375 62.3471875 -41.9296875 61.7490625 -42.9921875 61.1328125 C-50.806838 55.18688277 -57.42832152 48.00269205 -58.8671875 37.9453125 C-59.55392961 26.38955579 -59.18731571 16.12200192 -51.60546875 6.828125 C-37.68563137 -8.24909212 -17.43914288 -12.49726043 0 0 Z " fill="#FBFCFD" transform="translate(332.8671875,74.0546875)"/>
<path d="M0 0 C1.17949219 -0.00644531 2.35898438 -0.01289063 3.57421875 -0.01953125 C4.79753906 -0.00019531 6.02085937 0.01914063 7.28125 0.0390625 C8.50457031 0.01972656 9.72789062 0.00039062 10.98828125 -0.01953125 C12.16777344 -0.01308594 13.34726563 -0.00664062 14.5625 0 C15.63564453 0.00563965 16.70878906 0.0112793 17.81445312 0.01708984 C22.09780064 0.95116415 23.34847967 1.97103737 25.78125 5.6640625 C26.55943561 10.0305346 26.55331657 14.35065119 26.55078125 18.77734375 C26.5626799 20.06086227 26.57457855 21.3443808 26.58683777 22.66679382 C26.60770965 25.38122473 26.60904564 28.09484595 26.59790039 30.80932617 C26.58623163 34.27038294 26.63364757 37.7277543 26.69736195 41.18813801 C26.74798004 44.5096638 26.73967259 47.83043441 26.73828125 51.15234375 C26.76388626 52.38592117 26.78949127 53.6194986 26.81587219 54.89045715 C26.73371462 61.04918579 26.39629109 64.80527157 21.96191406 69.29931641 C20.59492174 70.4531244 19.20155376 71.57655244 17.78125 72.6640625 C16.49378349 73.77427424 15.21049659 74.88937333 13.93359375 76.01171875 C13.27472168 76.57906738 12.61584961 77.14641602 11.93701172 77.73095703 C7.55405245 81.6612256 3.47479856 85.91016261 -0.65625 90.1015625 C-2.44434426 91.91500182 -4.23458357 93.72632951 -6.02734375 95.53515625 C-7.19994751 96.72516235 -7.19994751 96.72516235 -8.39624023 97.93920898 C-10.21875 99.6640625 -10.21875 99.6640625 -11.21875 99.6640625 C-11.33458012 87.49444065 -11.42343336 75.32494985 -11.47781086 63.15488911 C-11.50390893 57.50385892 -11.53931158 51.85320576 -11.59594727 46.20239258 C-11.65025841 40.74940979 -11.68016895 35.29678973 -11.69313622 29.84355736 C-11.70237762 27.76268999 -11.72042402 25.68184256 -11.74740028 23.60112953 C-11.7836782 20.68718127 -11.78869581 17.77473331 -11.78637695 14.8605957 C-11.80435333 13.99960266 -11.82232971 13.13860962 -11.84085083 12.25152588 C-11.80332741 7.89608811 -11.62259919 6.18550579 -8.86869812 2.62971497 C-5.66754581 0.25519568 -3.95569589 0.02078819 0 0 Z " fill="#0062A8" transform="translate(155.21875,-0.6640625)"/>
<path d="M0 0 C0.33 0 0.66 0 1 0 C1 25.74 1 51.48 1 78 C-1.31 76.68 -3.62 75.36 -6 74 C-8.36760211 73.08299706 -8.36760211 73.08299706 -10.5625 72.5 C-20.12879758 69.44072717 -26.2682326 62.65982329 -30.875 53.9375 C-34.1441203 47.43173411 -34.14659006 40.56468867 -34.09765625 33.44140625 C-34.0962413 32.65225327 -34.09482635 31.86310028 -34.09336853 31.05003357 C-34.08781555 28.55414885 -34.07527208 26.05835715 -34.0625 23.5625 C-34.05747891 21.86002735 -34.05291707 20.15755327 -34.04882812 18.45507812 C-34.03786158 14.30335012 -34.02062991 10.15169078 -34 6 C-33.14768799 5.99589111 -32.29537598 5.99178223 -31.41723633 5.98754883 C-28.23904652 5.9604958 -25.06216708 5.9113357 -21.88452148 5.84741211 C-20.51224569 5.82429022 -19.13979391 5.80984997 -17.76733398 5.80444336 C-15.78865529 5.79511335 -13.81023376 5.75142981 -11.83203125 5.70703125 C-10.64327393 5.6913208 -9.4545166 5.67561035 -8.22973633 5.65942383 C-4.15378926 4.82722691 -2.68279173 3.08519515 0 0 Z " fill="#FBFCFD" transform="translate(564,65)"/>
<path d="M0 0 C24.09 0 48.18 0 73 0 C71.68 0.66 70.36 1.32 69 2 C58.87214628 10.37368298 49.80682928 20.11686635 40.57910156 29.45751953 C35.84761754 34.23580604 31.08139926 38.8899748 25.96362305 43.2590332 C21.97889199 46.79193351 18.29581793 50.64303026 14.5625 54.4375 C12.96190783 56.06343804 11.35916813 57.68726587 9.75390625 59.30859375 C8.70698608 60.37291626 8.70698608 60.37291626 7.63891602 61.45874023 C6 63 6 63 5 63 C4.99453156 61.92671196 4.99453156 61.92671196 4.98895264 60.83174133 C4.95103711 54.0783225 4.89414462 47.32535881 4.81609726 40.57227802 C4.77663972 37.10065676 4.7444433 33.62928846 4.72900391 30.1574707 C4.71091939 26.16316222 4.66096158 22.16979857 4.609375 18.17578125 C4.60814636 16.93290848 4.60691772 15.69003571 4.60565186 14.40950012 C4.58593323 13.24867416 4.5662146 12.08784821 4.54589844 10.8918457 C4.53701599 9.87258499 4.52813354 8.85332428 4.51898193 7.80317688 C4.10253679 4.32166417 4.10253679 4.32166417 0 0 Z " fill="#FCFCFC" transform="translate(176,0)"/>
<path d="M0 0 C0.33 0 0.66 0 1 0 C1.20302734 1.34578125 1.20302734 1.34578125 1.41015625 2.71875 C3.96674429 17.53777531 9.24595062 30.38523839 19 42 C19.51820312 42.63035156 20.03640625 43.26070312 20.5703125 43.91015625 C33.14457787 57.77976051 51.19679926 62.93306206 69 66 C69 66.33 69 66.66 69 67 C46.23 67 23.46 67 0 67 C0 44.89 0 22.78 0 0 Z " fill="#FDFDFA" transform="translate(0,109)"/>
<path d="M0 0 C13.2 0 26.4 0 40 0 C40 12.87 40 25.74 40 39 C37.69 37.35 35.38 35.7 33 34 C29.74129868 33.23938231 29.74129868 33.23938231 26.41015625 33.29296875 C25.21455078 33.26396484 24.01894531 33.23496094 22.78710938 33.20507812 C21.55798828 33.19927734 20.32886719 33.19347656 19.0625 33.1875 C17.80630859 33.16236328 16.55011719 33.13722656 15.25585938 33.11132812 C12.1702577 33.0526665 9.08606812 33.01623074 6 33 C5.98541748 32.23856689 5.97083496 31.47713379 5.95581055 30.69262695 C5.88119459 27.23208112 5.78457741 23.77248555 5.6875 20.3125 C5.66494141 19.11431641 5.64238281 17.91613281 5.61914062 16.68164062 C5.58369141 15.52470703 5.54824219 14.36777344 5.51171875 13.17578125 C5.48553467 12.11270752 5.45935059 11.04963379 5.43237305 9.9543457 C4.80478109 5.66609598 3.02814749 3.02814749 0 0 Z " fill="#FDFDFD" transform="translate(525,0)"/>
<path d="M0 0 C1.18239258 0.01353516 1.18239258 0.01353516 2.38867188 0.02734375 C4.32174666 0.05077496 6.2546638 0.08664162 8.1875 0.125 C8.1875 0.785 8.1875 1.445 8.1875 2.125 C6.70858765 3.58143616 6.70858765 3.58143616 4.66943359 5.26977539 C0.38181884 8.91771565 -3.57951893 12.79554504 -7.5234375 16.80859375 C-8.94648704 18.24426706 -10.36966777 19.67981034 -11.79296875 21.11523438 C-14.00693593 23.35418599 -16.21925244 25.5947262 -18.42919922 27.83764648 C-20.58130803 30.01977043 -22.73944199 32.19578648 -24.8984375 34.37109375 C-25.56297943 35.04909531 -26.22752136 35.72709686 -26.91220093 36.42564392 C-27.5268924 37.04371414 -28.14158386 37.66178436 -28.77490234 38.29858398 C-29.31480804 38.84594711 -29.85471375 39.39331024 -30.41098022 39.95726013 C-31.8125 41.125 -31.8125 41.125 -33.8125 41.125 C-34.77821737 22.62614725 -34.77821737 22.62614725 -28.8125 14.125 C-28.090625 13.0525 -27.36875 11.98 -26.625 10.875 C-18.94559444 3.36624789 -10.58252428 -0.23063339 0 0 Z " fill="#FDFCF8" transform="translate(69.8125,67.875)"/>
<path d="M0 0 C1.875 0.125 1.875 0.125 4 1 C5.625 3.5 5.625 3.5 7 6 C9.46120841 7.23060421 11.25776866 7.2057723 14.0078125 7.31640625 C14.99394531 7.35830078 15.98007812 7.40019531 16.99609375 7.44335938 C18.54490234 7.50233398 18.54490234 7.50233398 20.125 7.5625 C21.16527344 7.60568359 22.20554687 7.64886719 23.27734375 7.69335938 C25.85142528 7.7996288 28.42560508 7.90166583 31 8 C31 8.33 31 8.66 31 9 C13.18 9 -4.64 9 -23 9 C-23 8.67 -23 8.34 -23 8 C-22.24976563 7.82984375 -21.49953125 7.6596875 -20.7265625 7.484375 C-9.60921923 5.37070414 -9.60921923 5.37070414 0 0 Z " fill="#EEF4F8" transform="translate(345,167)"/>
<path d="M0 0 C0.66 0.33 1.32 0.66 2 1 C0.38405168 3.04119788 -1.2856382 5.04072937 -3 7 C-3.66 7 -4.32 7 -5 7 C-5.33 7.99 -5.66 8.98 -6 10 C-8.5625 11.1875 -8.5625 11.1875 -11 12 C-7.49102731 7.81576108 -3.91939465 3.80411834 0 0 Z " fill="#F6C317" transform="translate(26,47)"/>
</svg>
